<?xml version="1.0" encoding="UTF-8" standalone="no"?>
<!DOCTYPE svg PUBLIC "-//W3C//DTD SVG 1.1//EN" "http://www.w3.org/Graphics/SVG/1.1/DTD/svg11.dtd">
<svg width="100%" height="100%" viewBox="0 0 150 136" version="1.1" xmlns="http://www.w3.org/2000/svg" xmlns:xlink="http://www.w3.org/1999/xlink" xml:space="preserve" xmlns:serif="http://www.serif.com/" style="fill-rule:evenodd;clip-rule:evenodd;stroke-linejoin:round;stroke-miterlimit:2;">
    <g transform="matrix(1,0,0,1,-83.2743,-41.4124)">
        <g id="Layer_1-2">
            <g>
                <g id="wyVy76">
                    <path d="M157.46,54.46L190.92,54.46C191.22,54.46 191.52,54.45 191.81,54.47C193.07,54.57 193.98,55.5 193.99,56.77C193.99,57.84 194,58.91 193.91,59.97C193.85,60.66 193.99,60.71 194.61,60.5C198.73,59.07 202.61,59.54 206.1,62.19C208.92,64.34 210.12,67.39 210.53,70.83C211.04,75.14 209.42,78.76 206.96,82.12C204.28,85.78 200.89,88.74 197.41,91.58C194.95,93.59 192.47,95.58 189.98,97.56C187.33,99.65 185.3,102.16 183.74,105.21C181.03,110.53 177.19,114.97 172.03,118.14C170.22,119.25 168.29,120.11 166.25,120.69C165.64,120.86 165.36,121.11 165.29,121.78C164.85,126.22 164.59,130.65 165.68,135.04C166.03,136.45 166.56,137.78 167.52,138.9C167.85,139.29 168.24,139.46 168.75,139.45C170.44,139.43 172.13,139.43 173.82,139.45C175.55,139.45 176.5,140.41 176.51,142.12C176.52,144.01 176.51,145.9 176.51,147.78C176.52,149.62 176.28,149.42 178.12,149.43C178.87,149.43 179.61,149.42 180.36,149.43C182.15,149.48 183.05,150.4 183.06,152.18C183.06,155.31 183.07,158.44 183.06,161.57C183.06,163.26 182.11,164.2 180.41,164.2L134.43,164.2C132.73,164.2 131.77,163.27 131.76,161.58C131.74,158.4 131.75,155.22 131.76,152.04C131.76,150.42 132.73,149.46 134.37,149.42C135.44,149.4 136.51,149.4 137.57,149.42C138.11,149.43 138.32,149.22 138.31,148.68C138.29,146.54 138.3,144.41 138.31,142.27C138.31,140.33 139.21,139.43 141.13,139.43C142.77,139.43 144.41,139.41 146.05,139.43C146.6,139.43 147,139.25 147.34,138.84C148.29,137.71 148.82,136.37 149.17,134.97C150.1,131.21 150.03,127.39 149.71,123.56C149.65,122.87 149.55,122.18 149.49,121.49C149.46,121.13 149.34,120.9 148.96,120.79C141.28,118.57 136.02,113.4 131.96,106.78C131.28,105.68 130.62,104.56 130.09,103.39C129.24,101.48 127.79,100.11 126.28,98.78C122.91,95.84 119.28,93.22 115.89,90.31C112.28,87.22 108.81,83.99 106.37,79.82C104.31,76.29 103.71,72.57 104.7,68.56C106.51,61.29 113.75,58.2 120.07,60.41C120.99,60.73 120.96,60.74 120.91,59.76C120.86,58.77 120.84,57.77 120.85,56.78C120.86,55.45 121.76,54.53 123.08,54.45C123.48,54.42 123.87,54.44 124.27,54.44L157.43,54.44L157.46,54.46ZM157.44,59.25L126.81,59.25C125.69,59.25 125.66,59.25 125.72,60.36C125.92,64.05 126.18,67.74 126.59,71.42C127.22,77.15 128.13,82.84 129.61,88.42C131.46,95.4 133.97,102.1 138.48,107.87C142,112.38 146.38,115.58 152.12,116.67C154.56,117.13 157.03,116.85 159.48,116.92C162.62,117 165.57,116.19 168.36,114.75C171.72,113.02 174.39,110.5 176.67,107.53C180.43,102.62 182.76,97.02 184.5,91.16C187.47,81.15 188.6,70.84 189.15,60.46C189.21,59.26 189.18,59.26 188,59.26L157.45,59.26L157.44,59.25ZM125.48,91.92C125.53,91.88 125.59,91.84 125.64,91.81C125.57,91.53 125.49,91.25 125.42,90.96C125.02,89.37 124.58,87.79 124.22,86.2C122.96,80.63 122.14,74.99 121.62,69.3C121.5,68 121.29,66.76 120.18,65.84C117.46,63.6 112.68,64.16 110.65,67.05C108.96,69.45 108.58,72.13 109.4,74.92C110.23,77.74 112.05,79.95 114.02,82.04C116.59,84.78 119.49,87.15 122.42,89.49C123.44,90.3 124.47,91.11 125.49,91.92L125.48,91.92ZM189.25,91.84C189.56,91.87 189.71,91.68 189.87,91.54C192.29,89.6 194.74,87.7 197.08,85.65C199.49,83.53 201.79,81.31 203.62,78.65C205.31,76.19 206.27,73.57 205.7,70.52C204.83,65.84 200.64,63.31 196.31,64.94C194.64,65.57 193.47,66.64 193.36,68.57C193.32,69.31 193.18,70.05 193.11,70.79C192.54,76.43 191.68,82.02 190.34,87.53C189.99,88.97 189.62,90.4 189.25,91.85L189.25,91.84ZM137.67,159.42L177.13,159.42C178.3,159.42 178.3,159.42 178.3,158.28L178.3,155.52C178.3,154.647 177.873,154.21 177.02,154.21L137.7,154.21C136.947,154.21 136.57,154.6 136.57,155.38L136.57,158.36C136.57,159.42 136.57,159.42 137.67,159.42ZM157.4,149.42C161.87,149.42 166.34,149.41 170.81,149.43C171.52,149.43 171.78,149.2 171.75,148.49C171.71,147.42 171.75,146.35 171.74,145.29C171.74,144.23 171.74,144.23 170.65,144.23L148.89,144.23C147.23,144.23 145.56,144.25 143.9,144.23C143.32,144.23 143.1,144.44 143.11,145.02C143.14,146.16 143.11,147.31 143.11,148.45C143.11,149.42 143.13,149.44 144.13,149.44L157.4,149.44L157.4,149.42ZM157.36,139.43L161.46,139.43C162.33,139.43 162.35,139.4 162.04,138.61C161.36,136.89 160.94,135.11 160.68,133.28C160.16,129.7 160.14,126.11 160.51,122.51C160.56,122.02 160.51,121.71 159.88,121.69C158.24,121.64 156.61,121.68 154.97,121.69C154.48,121.69 154.3,121.89 154.35,122.37C154.42,123.21 154.49,124.05 154.53,124.89C154.77,129.59 154.5,134.23 152.78,138.67C152.51,139.36 152.78,139.42 153.34,139.41C154.68,139.39 156.02,139.41 157.36,139.41L157.36,139.43Z" style="fill-rule:nonzero;"/>
                </g>
            </g>
        </g>
    </g>
</svg>
