<?xml version="1.0" encoding="UTF-8" standalone="no"?>
<!DOCTYPE svg PUBLIC "-//W3C//DTD SVG 1.1//EN" "http://www.w3.org/Graphics/SVG/1.1/DTD/svg11.dtd">
<svg width="100%" height="100%" viewBox="0 0 150 136" version="1.1" xmlns="http://www.w3.org/2000/svg" xmlns:xlink="http://www.w3.org/1999/xlink" xml:space="preserve" xmlns:serif="http://www.serif.com/" style="fill-rule:evenodd;clip-rule:evenodd;stroke-linejoin:round;stroke-miterlimit:2;">
    <g transform="matrix(0.809816,0,0,0.809816,-56.2173,-13.5841)">
        <g id="Layer_1-2">
            <g>
                <g id="fbqnFv">
                    <g>
                        <path d="M136.8,101.06C137.99,98.45 136.12,96.28 134.8,93.96C132.92,90.67 131.06,87.37 129.16,84.09C127.26,80.8 127.43,77.51 129.08,74.19C132.37,67.54 136.21,61.2 139.99,54.83C141.17,52.85 142.39,50.89 143.58,48.92C145.26,46.13 147.74,44.64 150.95,44.28C161.85,43.06 172.74,41.82 183.64,40.6C185.04,40.44 186.2,39.99 187.25,38.92C190.43,35.66 193.73,32.51 196.99,29.33C198.35,28.01 199.37,27.9 200.4,28.94C201.34,29.89 201.31,30.96 200.03,32.25C196.3,36.05 192.51,39.8 188.74,43.56C187.86,44.44 186.7,44.56 185.55,44.69C176.07,45.75 166.59,46.81 157.11,47.89C155.09,48.12 153.08,48.4 151.07,48.62C149.41,48.8 148.17,49.62 147.32,51C142.27,59.17 137.3,67.39 132.92,75.96C131.74,78.26 131.79,80.38 133.19,82.63C135.13,85.75 136.89,88.99 138.66,92.21C139.21,93.21 139.56,93.34 140.39,92.41C141.53,91.14 142.94,90.12 144.6,89.63C145.7,89.3 145.79,88.78 145.38,87.82C144.62,86.05 143.84,84.29 142.73,82.71C141.91,81.54 141.97,80.5 142.93,79.45C147.38,74.52 151.73,69.5 156.28,64.66C158.55,62.25 161.53,61.33 164.87,62.03C167.58,62.6 170.17,63.48 172.44,65.1C174.79,66.77 175.49,68.59 174.77,71.39C173.66,75.73 170.85,79.06 168.09,82.42C166.06,84.89 163.64,86.97 161.33,89.15C159.08,91.28 157.93,93.83 159.01,97.02C159.39,98.14 159.91,98.32 160.95,97.75C167.79,94.01 174.63,90.28 181.52,86.62C184.02,85.29 185.79,83.18 187.66,81.2C196.37,71.97 205.49,63.16 214.42,54.15C216.16,52.39 217.25,52.13 218.33,53.15C219.46,54.22 219.2,55.39 217.41,57.18C210.35,64.25 203.29,71.32 196.24,78.41C194.69,79.97 193.13,81.52 191.72,83.2C188.12,87.49 183.71,90.63 178.67,92.99C176.39,94.06 176.45,94.14 177.36,96.41C179.01,100.54 178.55,104.58 176.75,108.55C174.11,114.36 169.6,118.48 164.52,122.06C162.73,123.32 160.82,124.41 158.95,125.57C158.15,126.06 157.32,126.19 156.46,125.7C150.32,122.17 144.62,118.11 140.5,112.2C138.26,108.98 136.91,105.42 136.77,101.09L136.8,101.06ZM174.03,101.49C174.07,100.34 173.85,99.12 173.42,97.91C172.97,96.64 172.35,96.34 171.09,97.05C167.65,98.99 164.14,100.8 160.68,102.71C159.23,103.51 158.09,103.27 157.06,102.01C155.71,100.35 154.82,98.5 154.54,96.38C154.43,95.58 154.23,94.93 153.51,94.44C150.03,92.07 145.22,92.81 142.8,96.24C140.43,99.6 140.7,103.2 142.35,106.72C145.42,113.28 151.04,117.31 156.94,121.02C157.49,121.37 157.99,121.23 158.48,120.92C163.54,117.77 168.31,114.29 171.61,109.17C173.09,106.88 174.12,104.42 174.03,101.48L174.03,101.49ZM170.84,70.15C171,69.21 170.33,68.75 169.7,68.33C168.27,67.38 166.65,66.86 165,66.4C162.59,65.72 160.56,66.29 158.88,68.14C155.83,71.52 152.95,75.08 149.68,78.23C147.48,80.35 147.18,81.97 148.6,84.77C149.87,87.28 150.85,89.53 153.94,89.9C153.99,89.9 154.04,89.94 154.09,89.97C154.88,90.45 155.41,90.19 155.81,89.41C156.83,87.41 158.44,85.91 160.13,84.49C163.74,81.46 166.66,77.84 169.19,73.89C169.93,72.74 170.6,71.53 170.85,70.14L170.84,70.15Z" style="fill-rule:nonzero;"/>
                        <path d="M115.31,134.58C119.84,135.46 124.84,133.5 129.88,131.79C135.01,130.05 140.2,129.78 145.42,131.3C147.1,131.79 148.73,132.47 150.35,133.15C151.33,133.56 152.21,133.57 153.2,133.17C155.8,132.12 158.42,131.13 161.04,130.17C166.37,128.21 171.61,128.57 176.71,130.98C177.79,131.49 178.81,131.72 180.01,131.63C184.1,131.32 187.98,132.14 191.59,134.12C192.44,134.59 193.25,134.74 194.25,134.6C201.1,133.65 206.36,136.23 210.09,141.98C211.7,144.47 211.26,146.1 208.63,147.46C198.69,152.62 188.74,157.76 178.8,162.92C174.07,165.37 169.35,167.82 164.63,170.3C161.69,171.84 158.61,172.26 155.37,171.63C143.68,169.36 132,167.08 120.31,164.84C117.16,164.24 113.96,164.68 110.78,164.57C109.68,164.53 108.58,164.61 107.49,164.51C106.07,164.38 105.12,163.36 105.26,162.15C105.42,160.77 106.31,160.24 107.66,160.2C114.64,160.01 121.53,160.43 128.41,161.95C137.99,164.07 147.68,165.73 157.32,167.57C159.12,167.91 160.84,167.5 162.42,166.68C176.55,159.35 190.66,151.98 204.8,144.66C206.11,143.98 206.14,143.45 205.14,142.4C201.77,138.86 197.75,137.78 193.13,139.2C186.37,141.29 179.65,143.53 172.9,145.67C171.81,146.02 171.5,146.5 171.67,147.69C172.36,152.69 169.06,156.49 164.01,156.35C154.96,156.1 145.92,155.69 136.88,155.33C136.45,155.31 136.01,155.22 135.59,155.11C134.57,154.84 133.94,154.16 133.98,153.1C134.02,151.98 134.73,151.25 135.81,151.07C136.61,150.94 137.45,150.98 138.27,151.02C142.16,151.2 146.05,151.43 149.94,151.58C154.71,151.76 159.48,151.92 164.25,152.01C166.56,152.05 167.56,150.92 167.41,148.6C167.26,146.21 166.12,144.4 163.95,143.39C161.56,142.28 159.14,141.23 156.68,140.29C152.23,138.58 147.98,136.34 143.3,135.21C139.51,134.3 135.79,134.58 132.08,135.58C131.5,135.74 130.88,135.84 130.35,136.09C123.16,139.51 115.49,138.96 107.88,138.87C106.31,138.85 105.28,137.94 105.28,136.7C105.28,135.48 106.3,134.59 107.91,134.55C110.05,134.5 112.19,134.54 115.31,134.54L115.31,134.58ZM186.76,136.79C185.53,136.19 184.57,136.1 183.6,135.97C177.96,135.21 173.3,138.1 168.36,139.98C167.99,140.12 167.57,140.39 167.99,140.82C168.71,141.56 169.21,142.53 170.69,141.98C173.61,140.88 176.64,140.06 179.62,139.11C181.9,138.38 184.16,137.63 186.76,136.78L186.76,136.79ZM158.08,136.19C159.61,136.66 160.98,138.12 162.52,137.63C165.61,136.65 168.57,135.26 171.59,134.05C166.68,132.44 162.33,133.91 158.08,136.19Z" style="fill-rule:nonzero;"/>
                    </g>
                </g>
            </g>
        </g>
    </g>
</svg>
