<?xml version="1.0" encoding="UTF-8"?>
<svg id="Layer_2" data-name="Layer 2" xmlns="http://www.w3.org/2000/svg" viewBox="0 0 163.89 153.14">
  <defs>
    <style>
      .cls-1 {
        fill: #221f20;
      }
    </style>
  </defs>
  <g id="Layer_1-2" data-name="Layer 1">
    <g>
      <g>
        <path class="cls-1" d="m119.11,153.14c-24.7,0-44.79-20.09-44.79-44.78s20.09-44.79,44.79-44.79,44.78,20.09,44.78,44.79-20.09,44.78-44.78,44.78Zm0-87.48c-23.54,0-42.69,19.15-42.69,42.69s19.15,42.69,42.69,42.69,42.69-19.15,42.69-42.69-19.15-42.69-42.69-42.69Z"/>
        <path class="cls-1" d="m130,100.8v-8.16h-4.54v4.68l-6.41-5.06-17.44,13.39,3.28,3.62,2.41-1.44v16.6h24.98v-16.6l1.84,1.44,2.51-3.61-6.62-4.86Z"/>
      </g>
      <g>
        <path class="cls-1" d="m44.78,153.14c-24.69,0-44.78-20.09-44.78-44.78s20.09-44.79,44.78-44.79,44.79,20.09,44.79,44.79-20.09,44.78-44.79,44.78Zm0-87.48c-23.54,0-42.69,19.15-42.69,42.69s19.15,42.69,42.69,42.69,42.69-19.15,42.69-42.69-19.15-42.69-42.69-42.69Z"/>
        <path class="cls-1" d="m56.05,114.14c0-.12,0-.25,0-.37,0-5.16-10.12-21.21-11.23-23.06-.7,2.31-11.29,17.92-11.29,23.06,0,.12,0,.24,0,.37,0,.2-.01.39-.01.59,0,.83.09,1.63.26,2.4,1.1,5.07,5.61,8.87,11.01,8.87s9.91-3.8,11.01-8.87c.17-.77.26-1.57.26-2.4,0-.19,0-.39,0-.59Z"/>
      </g>
      <g>
        <path class="cls-1" d="m80.63,89.57c-24.7,0-44.79-20.09-44.79-44.79S55.93,0,80.63,0s44.78,20.09,44.78,44.79-20.09,44.79-44.78,44.79Zm0-87.48c-23.54,0-42.69,19.15-42.69,42.69s19.15,42.69,42.69,42.69,42.69-19.15,42.69-42.69S104.17,2.09,80.63,2.09Z"/>
        <g>
          <path class="cls-1" d="m85.53,26.75c0,5.57-4.86,10.09-4.86,10.09,0,0-4.86-4.52-4.86-10.09s4.86-10.09,4.86-10.09c0,0,4.86,4.51,4.86,10.09Z"/>
          <path class="cls-1" d="m92.9,41.1c-3.36,4.44-9.96,5.11-9.96,5.11,0,0-1.16-6.53,2.21-10.97,3.36-4.45,9.96-5.11,9.96-5.11,0,0,1.16,6.54-2.2,10.98Z"/>
          <path class="cls-1" d="m68.35,41.1c3.36,4.44,9.96,5.11,9.96,5.11,0,0,1.16-6.53-2.2-10.97-3.36-4.45-9.96-5.11-9.96-5.11,0,0-1.16,6.54,2.2,10.98Z"/>
          <path class="cls-1" d="m92.9,55.41c-3.36,4.44-9.96,5.11-9.96,5.11,0,0-1.16-6.53,2.21-10.97,3.36-4.45,9.96-5.11,9.96-5.11,0,0,1.16,6.54-2.2,10.98Z"/>
          <path class="cls-1" d="m68.35,55.41c3.36,4.44,9.96,5.11,9.96,5.11,0,0,1.16-6.53-2.2-10.97-3.36-4.45-9.96-5.11-9.96-5.11,0,0-1.16,6.54,2.2,10.98Z"/>
          <rect class="cls-1" x="78.54" y="62.9" width="4.25" height="10.01"/>
        </g>
      </g>
    </g>
  </g>
</svg>