<?xml version="1.0" encoding="UTF-8"?>
<svg id="Layer_2" data-name="Layer 2" xmlns="http://www.w3.org/2000/svg" xmlns:xlink="http://www.w3.org/1999/xlink" viewBox="0 0 404.22 453.92">
  <defs>
    <style>
      .cls-1 {
        fill: url(#linear-gradient);
      }

      .cls-2 {
        fill: url(#linear-gradient-2);
      }
    </style>
    <linearGradient id="linear-gradient" x1="351.87" y1="29.66" x2="70.19" y2="329.97" gradientUnits="userSpaceOnUse">
      <stop offset="0" stop-color="#eeae70"/>
      <stop offset="1" stop-color="#e37c7f"/>
    </linearGradient>
    <linearGradient id="linear-gradient-2" x1="526.91" y1="193.85" x2="245.23" y2="494.15" xlink:href="#linear-gradient"/>
  </defs>
  <g id="Layer_1-2" data-name="Layer 1">
    <g>
      <path class="cls-1" d="m368.01,225.94c9.81-6.09,17.16-14.22,22.44-24.21,2.79-5.29,5.72-10.49,8.48-15.77,2.52-4.83,5.67-9.63,5.25-15.64-.33-4.64-1.82-5.92-5.86-3.85-3.35,1.71-6.84,2.32-10.49,2.92-7.01,1.15-13.96,2.69-20.88,4.31-4.33,1.02-10.4-3.05-9.57-7.32.68-3.55-.97-5.31-2.97-7.32-2.7-2.72-5.56-5.28-8.09-8.14-2.63-2.96-7.58-3.73-8.15-8.62-6.13.24-4.77-5.17-6.2-8.38-1.17-2.62-2.19-5.4-4.64-6.97-5.24-3.36-5.86-8.45-5.95-13.94-.08-5.36-1.51-10.14-6.32-13.36-1.82-1.22-3.69-2.9-3.29-5.24.55-3.22-1.17-5.33-2.57-7.78-2.14-3.76-4.06-7.65-5.98-11.53-.92-1.84-1.64-4.26-.21-5.7,3.17-3.2,2.25-7.45,3.6-11.06,1.83-4.91-.52-9.12-2.15-13.44-.52-1.38-1.63-2.21-3.14-1.92-4.62.91-8.9-.41-13.2-1.78-3.41-1.09-6.75-.55-9.55,1.45-3.5,2.5-6.99,2.73-10.8,1.2-4.67-1.87-9.91-1.97-14.41-3.77-5.42-2.17-11.56-2.35-16.34-6.63-4.05-3.63-9.09-2.45-13.64-.13-4,2.05-5.93,5.24-4.88,9.85.51,2.24-.22,3.91-2.21,5.05-1.82,1.04-3.46.81-5.09-.47-3.5-2.76-7.53-4.2-11.94-4.68-2.26-.25-4.64-1.03-5.39-3.12-2.29-6.36-7.99-7.33-13.23-8.15-5.45-.86-11.06-.44-14.18-6.29-.17-.32-.88-.51-1.32-.49-1.11.04-2.49.78-2.85-.95-.29-1.36.82-2.42,1.83-2.69,6.46-1.75,3.74-6.01,2.17-9.22-1.11-2.25-1.5-3.76-.09-5.84.78-1.15,1.75-3.8.28-3.8-3.3-.02-5.77-3.53-8.83-2.25-5.96,2.49-12.09,1.17-18.12,1.68-3.35.29-6.4,1.54-10.11,1.23-8.46-.71-17.03.7-24.74,4.18-4.56,2.05-9.75,3.42-13.39,7.38-.96,1.04-2.5.95-3.8.55-3.43-1.06-6.91-.72-10.37-.47-1.81.13-3.26-.35-4.58-1.51-4.73-4.17-6.04-3.9-8.2,2.18-1.98,5.58-4.77,10.09-10.89,12.06-3.61,1.16-5.71,4.29-7.36,7.74-2.24,4.7-4.34,9.32-3.1,14.75.31,1.36-.62,2.53-1.32,3.68-2.78,4.55-6.56,8.51-11.51,9.92-8.41,2.39-11.58,9.9-14.93,15.92-4.23,7.6-9.29,14.76-13,22.67-1.93,4.12-3.65,8,.89,11.57,1.13.88,1.51,2.19,1.19,3.61-.61,2.74.23,5.27,1.05,7.82.84,2.6.51,5.13.08,7.84-1.24,7.9-9.11,14.9-3.39,23.78.15.23.06.67-.03.98-.88,3.35,1.1,5.82,2.1,8.74,1.28,3.75,3.68,3.81,6.29,5.44,5.35,3.35,11.35,7.24,12.71,14.6.55,2.98,1.62,5.61,4.7,7.2,5.54,2.87,10.65,6.36,15.51,10.3,8.17-4.34,17.25-6.26,26.48-7.44,9.02-1.15,18.09-1.28,27.17-.58,17.73,1.04,35.35,2.78,52.07,9.42,4.62,1.83,8.96,4.18,12.91,7.23,1.67,1.29,3.17,2.6,3.6,4.82.27,1.4,1.12,2.48,2.32,3.28,17.62,11.76,23.19,29.13,22.97,49.22-.03,2.6.03,5.22.28,7.81.38,3.96-.42,7.39-3.72,9.92-2.96,2.27-2.92,4.95-1.28,8.02,3.43,6.41,8.73,11.27,13.49,16.59,2.11,2.36,4.31,4.62,5.51,7.65,2.27,5.76.66,9.51-5.14,11.76-5.11,1.98-5.32,3.49-1.03,7.17,4.95,4.24,5.4,8.54,1.1,13.63-1.24,1.46-1.59,1.96.14,3.34,2.91,2.32,3.87,7.56,2.47,10.97-.75,1.82-2.12,2.67-4.09,2.98-6.42,1.02-7.91,3.15-6.72,9.29,1.16,6-.02,10.93-3.15,14.41.43,2.08.82,4.16,1.07,6.27.32,2.63,1.19,5.51,3.2,7.22,7.68,6.5,8.96,16.56,14.05,24.48,1.28,1.99,1.25,4.32.54,6.75-1.31,4.43-.28,8.92,2.78,11.99,3.18,3.2,7.36,4.56,12.39,2.81,6.38-2.22,12.83-4.82,17.27-4.05,9.96.89,17.13-.35,23.23-4.23,12.7-8.09,18.98-22.24,29.49-32.46.22-.21.3-.59.38-.91,1.21-4.84,3.45-9.59,2.92-14.62-.47-4.46,1.78-6.39,5.18-7.88,1.52-.67,3.13-1.13,4.68-1.74,3.6-1.42,5.44-3.78,5.46-7.96.04-6.55.1-12.99-3.08-19-.89-1.67-1.5-3.85.21-5.09,7.75-5.6,13.28-14.08,22.94-17.25,5.85-1.92,12.52-11.03,11.19-15.76-1.85-6.61-1.18-13.23-1.32-19.84-.06-2.85-.68-5.11-2.85-7.1-2.59-2.37-3.73-5.83-3.61-9.06.22-5.83.69-11.55-1.8-17.05-.52-1.15-.24-2.37.41-3.36,3.67-5.64,5.24-12.64,11.38-16.71,1.98-1.31,3.25-3.74,4.74-5.73,5.15-6.86,11.22-12.92,18.43-17.39Z"/>
      <path class="cls-2" d="m389.7,308.79c-1.3,3.4-4.54,5.35-5.85,8.28-3.46,7.74-9.54,11.68-17.19,13.83-2.48.7-3.79,1.97-4.77,4.44-1.74,4.38-1.99,8.62-.95,13.17.68,2.99,2.49,6.4.24,9.17-5.54,6.82-7.21,13.95-3.07,22.01.07.14.03.33.05.49.78,7.07,4.31,11.4,9.76,11.96,5.01.52,12.11-4.3,13.8-9.68,4.75-15.22,9.76-30.37,13.75-45.79.92-3.55,3.75-6.04,3.91-9.44-1.34-6.4-1.43-12.87-5.52-18.19-1.47-1.92-3.28-2.53-4.16-.26Z"/>
    </g>
  </g>
</svg>