<?xml version="1.0" encoding="UTF-8" standalone="no"?>
<!DOCTYPE svg PUBLIC "-//W3C//DTD SVG 1.1//EN" "http://www.w3.org/Graphics/SVG/1.1/DTD/svg11.dtd">
<svg width="100%" height="100%" viewBox="0 0 150 136" version="1.1" xmlns="http://www.w3.org/2000/svg" xmlns:xlink="http://www.w3.org/1999/xlink" xml:space="preserve" xmlns:serif="http://www.serif.com/" style="fill-rule:evenodd;clip-rule:evenodd;stroke-linejoin:round;stroke-miterlimit:2;">
    <g transform="matrix(1,0,0,1,-87.4733,-40.1094)">
        <g id="Layer_1-2">
            <g>
                <path d="M103.43,110.11L103.43,77.41C103.43,68.72 110.08,62.03 118.76,62.02L136.07,62.02C137.42,62.02 137.42,62.02 137.43,60.66L137.43,52.51C137.43,50.6 138.48,49.37 140.11,49.35C141.81,49.32 142.95,50.51 142.98,52.48C143.02,55.23 143.04,57.98 142.98,60.73C142.96,61.79 143.33,62.05 144.33,62.04C153.43,62.01 162.53,62 171.63,62.04C172.7,62.04 172.94,61.68 172.92,60.69C172.86,57.87 172.88,55.05 172.91,52.24C172.93,50.35 174.27,49.18 176.09,49.4C177.53,49.57 178.45,50.67 178.47,52.35C178.5,55.1 178.48,57.85 178.48,60.6C178.48,62.02 178.48,62.03 179.86,62.03L196.87,62.03C205.81,62.03 212.44,68.63 212.46,77.61C212.48,90.48 212.48,103.35 212.45,116.22C212.45,117.27 212.72,118.08 213.42,118.87C218.62,124.68 221.1,131.52 220.86,139.29C220.65,146.08 218.28,152.08 213.83,157.22C208.86,162.96 202.57,166.37 195.03,167.15C186.34,168.05 178.63,165.59 172.16,159.63C171.24,158.78 170.35,158.42 169.1,158.43C152.39,158.47 135.69,158.46 118.98,158.45C111.49,158.45 105.27,153.49 103.73,146.35C103.5,145.29 103.4,144.21 103.4,143.12C103.41,132.12 103.4,121.12 103.4,110.12L103.43,110.11ZM109,110.08L109,142.98C109,148.58 113.27,152.87 118.85,152.87C134.37,152.88 149.89,152.87 165.4,152.87C166.64,152.87 166.62,152.87 166.05,151.72C161.19,141.83 161.41,132.03 167.29,122.72C172.89,113.84 181.27,109.38 191.77,109.16C196.78,109.06 201.51,110.35 205.9,112.82C206.88,113.37 206.92,113.35 206.92,112.31C206.92,100.7 206.96,89.08 206.92,77.47C206.9,71.64 202.72,67.59 196.89,67.58C191.19,67.57 185.48,67.6 179.78,67.56C178.83,67.56 178.48,67.8 178.44,68.8C178.39,70.31 177.2,71.27 175.62,71.28C174.22,71.28 173,70.3 172.98,68.86C172.96,67.69 172.44,67.56 171.49,67.56C162.66,67.58 153.83,67.57 145,67.57C143.873,67.57 143.16,68.12 142.86,69.22C142.48,70.64 141.39,71.4 139.89,71.28C138.55,71.18 137.47,70.14 137.48,68.73C137.48,67.74 137.08,67.55 136.21,67.55C130.27,67.58 124.33,67.56 118.38,67.57C117.84,67.57 117.29,67.61 116.76,67.72C112.11,68.72 109.02,72.48 109.01,77.25C108.99,88.18 109.01,99.12 109.01,110.05L109,110.08ZM191.77,161.9C204.74,161.93 215.46,151.37 215.5,138.54C215.54,125.3 205.11,114.77 192.02,114.6C179.24,114.44 168.2,124.82 168.13,138.13C168.06,151.27 178.64,161.87 191.76,161.9L191.77,161.9ZM196.8,90.63L119.5,90.63C119.16,90.63 118.82,90.63 118.48,90.61C117.01,90.5 115.93,89.41 115.87,87.98C115.8,86.52 116.73,85.37 118.21,85.12C118.61,85.05 119.02,85.06 119.43,85.06L196.83,85.06C198.74,85.06 200.05,86.22 200.03,87.86C200.01,89.53 198.74,90.63 196.8,90.63ZM187.42,132.2C187.42,129.69 187.41,127.17 187.42,124.66C187.42,123.55 187.92,122.68 188.9,122.16C189.85,121.65 190.81,121.77 191.7,122.35C192.6,122.94 192.79,123.86 192.79,124.85L192.79,135.75C192.79,136.73 193.267,137.223 194.22,137.23C197.68,137.23 201.15,137.21 204.61,137.24C206.75,137.26 207.99,139.08 207.23,141.01C206.83,142.04 206.02,142.59 204.95,142.6C199.96,142.63 194.97,142.64 189.98,142.6C188.41,142.59 187.44,141.42 187.42,139.64C187.39,137.16 187.42,134.68 187.42,132.2Z" style="fill-rule:nonzero;"/>
            </g>
        </g>
    </g>
</svg>
