<?xml version="1.0" encoding="UTF-8" standalone="no"?>
<!DOCTYPE svg PUBLIC "-//W3C//DTD SVG 1.1//EN" "http://www.w3.org/Graphics/SVG/1.1/DTD/svg11.dtd">
<svg width="100%" height="100%" viewBox="0 0 150 136" version="1.1" xmlns="http://www.w3.org/2000/svg" xmlns:xlink="http://www.w3.org/1999/xlink" xml:space="preserve" xmlns:serif="http://www.serif.com/" style="fill-rule:evenodd;clip-rule:evenodd;stroke-linejoin:round;stroke-miterlimit:2;">
    <g transform="matrix(0.954928,0,0,0.954928,-79.8103,-35.4255)">
        <g id="Layer_1-2">
            <g>
                <g id="JiqOJi">
                    <g>
                        <path d="M210.66,116.03L210.66,167.42C210.66,169.92 210.14,170.44 207.68,170.44L135.27,170.44C132.88,170.44 132.36,169.91 132.36,167.48C132.36,139.28 132.36,111.09 132.34,82.89C132.34,81.72 132.56,80.76 133.44,79.89C139.27,74.12 145.07,68.32 150.85,62.5C151.66,61.68 152.53,61.33 153.69,61.33C171.72,61.35 189.75,61.34 207.78,61.35C210.04,61.35 210.67,61.98 210.67,64.24L210.67,116.02L210.66,116.03ZM206.75,115.99L206.75,67.03C206.75,65.3 206.7,65.25 205.07,65.25C188.84,65.25 172.6,65.25 156.37,65.23C155.17,65.23 154.72,65.57 154.74,66.83C154.8,71.53 154.77,76.23 154.76,80.93C154.76,83.12 154.12,83.77 151.94,83.77L138.1,83.77C136.26,83.77 136.26,83.77 136.26,85.63L136.26,164.83C136.26,166.077 136.903,166.7 138.19,166.7L204.71,166.7C206.077,166.7 206.763,166.033 206.77,164.7L206.77,116L206.75,115.99ZM150.85,68.74C147.19,72.34 143.37,76.08 139.52,79.86L149.83,79.86C150.62,79.86 150.85,79.43 150.85,78.72C150.84,76.84 150.85,74.97 150.85,73.09L150.85,68.73L150.85,68.74Z" style="fill-rule:nonzero;"/>
                        <path d="M113.65,151.85L113.65,49.2C113.65,46.73 114.17,46.22 116.67,46.22L189.07,46.22C191.39,46.22 191.95,46.77 191.95,49.08C191.95,50.49 191.98,51.9 191.94,53.31C191.9,54.63 191.15,55.48 190.08,55.51C189.02,55.55 188.23,54.72 188.09,53.43C188.07,53.22 188.07,53 188.06,52.79C188.02,50.917 187.047,49.98 185.14,49.98L119.27,49.98C117.56,49.98 117.55,49.98 117.55,51.68L117.55,149.59C117.55,151.41 117.57,151.41 119.43,151.43C120.58,151.44 121.74,151.45 122.88,151.56C123.97,151.66 124.58,152.34 124.54,153.46C124.5,154.56 123.84,155.25 122.76,155.28C120.37,155.34 117.98,155.34 115.59,155.28C114.45,155.25 113.82,154.5 113.68,153.39C113.62,152.88 113.65,152.37 113.65,151.85Z" style="fill-rule:nonzero;"/>
                        <path d="M171.42,111.25L146.32,111.25C145.89,111.25 145.45,111.27 145.05,111.16C144.16,110.93 143.66,110.3 143.66,109.39C143.66,108.5 144.1,107.81 145,107.59C145.49,107.47 146.01,107.49 146.52,107.49L196.73,107.49C198.44,107.5 199.37,108.2 199.34,109.43C199.31,110.64 198.43,111.27 196.77,111.27L171.42,111.27L171.42,111.25Z" style="fill-rule:nonzero;"/>
                        <path d="M171.48,150.46L146.62,150.46C146.15,150.46 145.67,150.49 145.21,150.41C144.25,150.23 143.68,149.61 143.67,148.64C143.66,147.62 144.2,146.94 145.23,146.76C145.65,146.69 146.08,146.72 146.51,146.71L196.62,146.71C196.96,146.71 197.31,146.7 197.64,146.74C198.69,146.87 199.28,147.53 199.32,148.53C199.36,149.55 198.73,150.2 197.74,150.42C197.33,150.51 196.89,150.47 196.46,150.47L171.47,150.47L171.48,150.46Z" style="fill-rule:nonzero;"/>
                        <path d="M171.49,98.18L146.77,98.18C146.3,98.18 145.83,98.21 145.36,98.15C144.32,98.02 143.73,97.37 143.68,96.36C143.64,95.39 144.23,94.76 145.14,94.5C145.54,94.39 145.99,94.42 146.41,94.42L197.14,94.42C198.45,94.47 199.32,95.2 199.35,96.26C199.38,97.39 198.51,98.16 197.11,98.17C190.15,98.18 183.19,98.17 176.23,98.17L171.49,98.17L171.49,98.18Z" style="fill-rule:nonzero;"/>
                        <path d="M171.51,124.32L146.53,124.32C146.1,124.32 145.67,124.35 145.25,124.28C144.29,124.11 143.71,123.48 143.67,122.53C143.63,121.52 144.21,120.84 145.21,120.62C145.58,120.54 145.97,120.57 146.36,120.57L196.57,120.57C196.87,120.57 197.17,120.56 197.47,120.59C198.55,120.7 199.39,121.53 199.32,122.51C199.24,123.59 198.58,124.2 197.51,124.31C197.09,124.35 196.66,124.33 196.23,124.33L171.51,124.33L171.51,124.32Z" style="fill-rule:nonzero;"/>
                        <path d="M171.37,137.39L146.65,137.39C146.22,137.39 145.79,137.42 145.37,137.36C144.3,137.18 143.66,136.52 143.68,135.44C143.7,134.42 144.33,133.8 145.36,133.66C145.7,133.61 146.04,133.63 146.38,133.63L196.97,133.63C198.44,133.66 199.36,134.41 199.33,135.57C199.31,136.65 198.39,137.38 196.98,137.38L171.36,137.38L171.37,137.39Z" style="fill-rule:nonzero;"/>
                        <path d="M181.7,85.11L166.58,85.11C165.48,85.11 164.63,84.79 164.4,83.6C164.2,82.54 164.82,81.62 165.88,81.41C166.34,81.32 166.81,81.34 167.28,81.34L197.14,81.34C198.43,81.39 199.31,82.15 199.32,83.21C199.34,84.34 198.43,85.14 197.08,85.14L181.7,85.14L181.7,85.1L181.7,85.11Z" style="fill-rule:nonzero;"/>
                    </g>
                </g>
            </g>
        </g>
    </g>
</svg>
